# xmcd
#
# Track frame offsets:
#	150
#	15235
#	27013
#	40560
#	61526
#	78569
#	93127
#	105080
#	118038
#	128555
#
# Disc length: 1916 seconds
#
# Revision: 0
# Processed by: cddbd v1.5.1PL2 Copyright (c) Steve Scherf et al.
# Submitted via: EasyCDDAExtractor 8.2.2.1
#
DISCID=5a077a0a
DTITLE=Dave Freeman - I Found Somebody
DYEAR=1900
DGENRE=Blues
TTITLE0=I Found Somebody
TTITLE1=Can't Yousee, I'm In Love With You
TTITLE2=Let The Good Times Roll
TTITLE3=Since I Fell For You
TTITLE4=Drinking Winde Spo-Dee-O-Dee
TTITLE5=Love Potion No. 9
TTITLE6=Who Dat
TTITLE7=Waccamaw
TTITLE8=After You're Gone
TTITLE9=Boatdocks
EXTD=Mar 1, 2005\nBradley House Record \nCatalog 1780\nUPC 6 06352 17802 4
EXTT0=
EXTT1=
EXTT2=
EXTT3=
EXTT4=
EXTT5=
EXTT6=
EXTT7=
EXTT8=
EXTT9=
PLAYORDER=
